<?xml version="1.0" encoding="UTF-8"?>
<svg width="36px" height="36px" viewBox="0 0 36 36" version="1.1" xmlns="http://www.w3.org/2000/svg" xmlns:xlink="http://www.w3.org/1999/xlink">
    <!-- Generator: Sketch 53.1 (72631) - https://sketchapp.com -->
    <title>icon-search-baidu</title>
    <desc>Created with Sketch.</desc>
    <g id="icon-search-baidu" stroke="none" stroke-width="1" fill="none" fill-rule="evenodd">
        <g fill-rule="nonzero">
            <rect id="Rectangle" x="0" y="0" width="36" height="36"></rect>
            <g id="百度" transform="translate(3.000000, 2.000000)" fill="#3245DF">
                <path d="M4.46563631,16.8661209 C7.93947287,16.1198462 7.46663664,11.9687911 7.36233998,11.0611765 C7.19188991,9.66208648 5.5467873,7.21793187 3.31260627,7.41057602 C0.501210003,7.66257449 0.0908199447,11.7234242 0.0908199447,11.7234242 C-0.289623909,13.6013031 1.00028518,17.6117778 4.46563631,16.8661209 Z M8.15424491,24.0857663 C8.05225499,24.3779247 7.82545505,25.1242406 8.02226761,25.7739667 C8.40979643,27.2323698 9.67573209,27.2977378 9.67573209,27.2977378 L11.4948273,27.2977378 L11.4948273,22.8516822 L9.54729729,22.8516822 C8.67140307,23.11266 8.24898516,23.7935667 8.15424491,24.0857663 Z M10.9128338,9.90452895 C12.8314886,9.90452895 14.3818509,7.69676192 14.3818509,4.96703919 C14.3818509,2.23978787 12.8314473,0.0325974943 10.9128338,0.0325974943 C8.99776262,0.0325974943 7.44270442,2.23978787 7.44270442,4.96703919 C7.44270446,7.69672074 8.99776266,9.90452895 10.9128338,9.90452895 Z M19.1754604,10.2308336 C21.739667,10.563811 23.3883533,7.82745681 23.7159486,5.75347385 C24.0507935,3.68258013 22.3960521,1.27623765 20.580623,0.862857982 C18.7615279,0.445894803 16.4901098,3.35915874 16.2836996,5.25915645 C16.0364688,7.581472 16.616032,9.90143976 19.1754604,10.2308336 Z M25.4582629,22.4226504 C25.4582629,22.4226504 21.4913652,19.3534423 19.1754604,16.0358193 C16.0364688,11.1445032 11.5764686,13.1352006 10.0849276,15.6224808 C8.59940049,18.1098022 6.28477267,19.6828362 5.95594164,20.099717 C5.62249717,20.5100898 1.16348558,22.9164323 2.15343879,27.3133075 C3.14343318,31.7066403 6.61957647,31.6226133 6.61957647,31.6226133 C6.61957647,31.6226133 9.1813116,31.8746118 12.1536015,31.2092748 C15.1269624,30.5499928 17.6863908,31.3742807 17.6863908,31.3742807 C17.6863908,31.3742807 24.6315925,33.6996443 26.5321642,29.2222845 C28.4305117,24.7450484 25.4582629,22.4226504 25.4582629,22.4226504 Z M13.5754467,29.0855348 L9.06016765,29.0855348 C7.11033097,28.6967866 6.33403762,27.3661538 6.2356313,27.1393222 C6.13965529,26.9089483 5.58649584,25.8392522 5.87916079,24.0202335 C6.72156635,21.2936 9.12492051,21.0979902 9.12492051,21.0979902 L11.5283982,21.0979902 L11.5283982,18.1439073 L13.5754467,18.175129 L13.5754467,29.0855348 Z M21.9845499,29.0543542 L16.7887888,29.0543542 C14.7754349,28.5353642 14.6805711,27.1052172 14.6805711,27.1052172 L14.6805711,21.358968 L16.7887888,21.3248218 L16.7887888,26.4890195 C16.9171824,27.039808 17.6012482,27.1393635 17.6012482,27.1393635 L19.7418835,27.1393635 L19.7418835,21.358968 L21.9845499,21.358968 L21.9845499,29.0543542 Z M29.340018,13.7135038 C29.340018,12.7211207 28.5156543,9.73350939 25.4582629,9.73350939 C22.3960521,9.73350939 21.9868978,12.5531904 21.9868978,14.5468122 C21.9868978,16.4491578 22.1477503,19.1050273 25.9514889,19.0205061 C29.756422,18.936438 29.340018,14.7111591 29.340018,13.7135038 Z" id="Shape"></path>
            </g>
        </g>
    </g>
</svg>